<svg xmlns="http://www.w3.org/2000/svg" width="20" height="20" viewBox="0 0 20 20">  <path fill-rule="evenodd" fill="currentColor" d="M17,1 C18.1045695,1 19,1.8954305 19,3 L19,17 C19,18.1045695 18.1045695,19 17,19 L3,19 C1.8954305,19 1,18.1045695 1,17 L1,3 C1,1.8954305 1.8954305,1 3,1 L17,1 Z M13.13575,7.53325 C11.836,7.53325 10.966,8.24575 10.60825,8.92075 L10.60825,8.92075 L10.57375,8.92075 L10.57375,7.75 L8.01325,7.75 L8.01325,16.339 L10.67875,16.339 L10.67875,12.08875 C10.67875,10.96825 10.891,9.8845 12.28075,9.8845 C13.6495,9.8845 13.66975,11.16625 13.66975,12.16225 L13.66975,16.339 L16.336,16.339 L16.336,11.6245 C16.336,9.31075 15.8365,7.53325 13.13575,7.53325 Z M6.33925,7.75 L3.66625,7.75 L3.66625,16.339 L6.33925,16.339 L6.33925,7.75 Z M5.00275,3.47875 C4.1455,3.47875 3.4555,4.1725 3.4555,5.026 C3.4555,5.88025 4.14475,6.57475 5.00275,6.57475 C5.857,6.57475 6.55075,5.88025 6.55075,5.026 C6.55075,4.1725 5.85775,3.47875 5.00275,3.47875 Z"></path></svg>